# 3ds Max Wavefront OBJ Exporter v0.97b - (c)2007 guruware
# 创建的文件:27.06.2018 16:54:56

mtllib test.mtl

#
# object Pyramid001
#

v  0.0000 0.0000 -30.3818
v  -19.2842 -16.1175 -70.3842
v  19.2842 -16.1175 -70.3842
v  19.2842 16.1175 -70.3842
v  -19.2842 16.1175 -70.3842
v  0.0000 0.0000 -70.3842
v  -44.9062 47.2096 -84.4341
v  -44.9062 -47.2096 -84.4341
v  0.0000 0.0000 -84.4341
v  44.9062 -47.2096 -84.4341
v  44.9062 47.2096 -84.4341
# 11 vertices

vn 0.0000 -0.9275 0.3737
vn 0.9008 0.0000 0.4342
vn 0.0000 0.9275 0.3737
vn -0.9008 0.0000 0.4342
vn 0.0000 0.0000 -1.0000
vn 0.0000 0.0000 1.0000
# 6 vertex normals

vt 0.5000 1.0000 0.0000
vt 0.0000 0.0000 0.0000
vt 1.0000 0.0000 0.0000
vt -0.0982 0.0000 0.0000
vt 0.9018 0.0000 0.0000
vt 0.0000 1.0000 0.0000
vt 1.0000 1.0000 0.0000
vt 1.0000 0.0000 0.0000
vt 0.0000 0.0000 0.0000
vt 0.5000 0.5000 0.0000
vt 0.5000 1.0000 0.0000
vt 0.0000 0.0000 0.0000
vt 1.0000 0.0000 0.0000
vt 0.0000 1.0000 0.0000
vt 1.0000 1.0000 0.0000
vt 0.5000 0.5000 0.0000
# 16 texture coords

o Pyramid001
g Pyramid001
usemtl Red
f 1/1/1 2/2/1 3/3/1 
f 1/11/2 3/4/2 4/5/2 
f 1/1/3 4/2/3 5/3/3 
f 1/11/4 5/4/4 2/5/4 
f 2/6/5 6/10/5 3/7/5 
f 3/7/5 6/10/5 4/8/5 
f 4/8/5 6/10/5 5/9/5 
f 2/6/5 5/9/5 6/10/5 
usemtl Yellow
f 7/14/6 8/12/6 9/16/6 
f 8/12/6 10/13/6 9/16/6 
f 10/13/6 11/15/6 9/16/6 
f 11/15/6 7/14/6 9/16/6 
# 12 faces

